<svg width="12" height="13" viewBox="0 0 12 13" fill="none" xmlns="http://www.w3.org/2000/svg">
<g clip-path="url(#clip0_27_23)">
<path d="M6.46824 9.83358L11.8083 4.49343C11.9319 4.36992 12 4.20504 12 4.02924C12 3.85343 11.9319 3.68856 11.8083 3.56504L11.4151 3.17178C11.1589 2.91588 10.7425 2.91588 10.4867 3.17178L6.00249 7.65604L1.51326 3.1668C1.38965 3.04329 1.22487 2.9751 1.04916 2.9751C0.873261 2.9751 0.708482 3.04329 0.584775 3.1668L0.191706 3.56007C0.0680971 3.68368 -3.81757e-08 3.84846 -4.58603e-08 4.02426C-5.3545e-08 4.20006 0.0680971 4.36494 0.191706 4.48845L5.53664 9.83358C5.66064 9.95738 5.8262 10.0254 6.00219 10.025C6.17888 10.0254 6.34434 9.95738 6.46824 9.83358Z" fill="white"/>
</g>
<defs>
<clipPath id="clip0_27_23">
<rect width="12" height="12" fill="white" transform="translate(12 0.5) rotate(90)"/>
</clipPath>
</defs>
</svg>
